<?xml version="1.0" standalone="no"?>
<!DOCTYPE svg PUBLIC "-//W3C//DTD SVG 20010904//EN"
 "http://www.w3.org/TR/2001/REC-SVG-20010904/DTD/svg10.dtd">
<svg version="1.0" xmlns="http://www.w3.org/2000/svg"
 width="518.000000pt" height="518.000000pt" viewBox="0 0 518.000000 518.000000"
 preserveAspectRatio="xMidYMid meet">
<metadata>
Created by potrace 1.11, written by Peter Selinger 2001-2013
</metadata>
<g transform="translate(0.000000,518.000000) scale(0.100000,-0.100000)"
fill="#000000" stroke="none">
<path d="M0 2590 l0 -2591 2590 1 2590 1 0 2590 0 2589 -2590 0 -2590 0 0
-2590z m2651 2409 c13 -7 19 -29 23 -96 4 -49 9 -116 12 -150 l6 -63 56 0 c31
0 145 -7 252 -15 391 -30 407 -33 429 -82 7 -16 11 -146 11 -373 l0 -350 23 0
c55 -1 214 -21 238 -31 15 -6 32 -22 38 -36 9 -19 8 -215 -4 -806 -8 -430 -17
-792 -20 -804 -10 -46 -39 -39 -267 62 -163 73 -218 102 -216 113 2 12 39 23
143 44 76 15 142 31 146 35 8 9 45 1160 38 1167 -6 6 -347 41 -559 58 -201 15
-620 15 -830 0 -210 -16 -594 -52 -598 -57 -4 -4 40 -1158 44 -1164 2 -2 74
-16 160 -32 86 -15 159 -30 162 -34 3 -3 -1 -12 -9 -20 -22 -21 -436 -205
-463 -205 -13 0 -27 8 -31 18 -7 16 -43 1261 -45 1510 0 161 -8 156 238 178
l72 7 0 349 c0 369 3 395 47 413 24 9 400 43 580 51 l142 7 5 51 c3 28 9 96
13 151 l8 100 35 12 c35 13 90 9 121 -8z m54 -2490 c259 -148 983 -574 999
-588 29 -24 56 -91 56 -138 0 -56 -44 -308 -81 -463 -78 -330 -205 -642 -340
-841 -38 -57 -42 -60 -72 -54 -18 4 -72 29 -122 56 -222 122 -227 124 -355
124 -133 0 -144 -4 -313 -119 -185 -125 -357 -146 -535 -66 -112 51 -131 73
-220 247 -126 248 -210 502 -277 834 -48 241 -53 313 -27 364 26 51 37 61 152
128 52 30 277 162 500 292 223 131 421 246 440 256 57 31 96 25 195 -32z"/>
<path d="M2370 4503 c-108 -8 -467 -44 -482 -49 -17 -5 -18 -27 -18 -285 l0
-279 23 0 c12 0 114 7 227 15 262 19 659 19 915 0 110 -8 206 -15 213 -15 9 0
12 62 12 279 0 258 -1 280 -17 285 -25 7 -167 23 -363 41 -147 13 -386 17
-510 8z"/>
</g>
</svg>
